<svg width="173" height="173" viewBox="0 0 173 173" fill="none" xmlns="http://www.w3.org/2000/svg">
<path d="M169.663 88.2C165.76 84.295 159.427 84.295 155.521 88.199L87.781 155.929C83.875 159.834 83.875 166.166 87.78 170.071C91.683 173.976 98.016 173.978 101.922 170.072L169.662 102.342C173.568 98.437 173.568 92.105 169.663 88.2Z" fill="white"/>
<path d="M84.802 3.33801C80.898 -0.565988 74.565 -0.566011 70.66 3.33899L2.93 71.079C-0.975002 74.985 -0.975002 81.316 2.931 85.222C6.836 89.127 13.168 89.127 17.073 85.221L84.803 17.481C88.708 13.575 88.708 7.24401 84.802 3.33801Z" fill="white"/>
</svg>
