<svg width="191" height="191" viewBox="0 0 191 191" fill="none" xmlns="http://www.w3.org/2000/svg">
<path d="M187.371 145.049C183.464 141.144 177.132 141.146 173.228 145.051L144.948 173.341C141.044 177.247 141.045 183.579 144.95 187.483C148.857 191.387 155.189 191.387 159.093 187.481L187.373 159.191C191.277 155.285 191.276 148.953 187.371 145.049Z" fill="white"/>
<path d="M45.954 3.63102C42.05 -0.274979 35.719 -0.274994 31.812 3.62901L3.522 31.909C-0.383999 35.813 -0.384998 42.145 3.519 46.051C7.422 49.955 13.753 49.959 17.661 46.053L45.951 17.773C49.857 13.869 49.858 7.53702 45.954 3.63102Z" fill="white"/>
</svg>
